<svg xmlns="http://www.w3.org/2000/svg" viewBox="0 0 623 118" style="enable-background:new 0 0 623 118"><path d="M100.6 68.6c-1.8 1.1-3.9 1.3-5.5.4-2-1.2-3.2-3.9-3.2-7.6V50.1c0-5.4-2.1-9.3-5.7-10.3-6.1-1.8-10.7 5.7-12.4 8.5L63 65.6V44.3c-.1-4.9-1.7-7.8-4.7-8.7-2-.6-5-.3-7.9 4.1L26.3 78.3c-3.2-6.1-4.9-12.9-4.9-19.8 0-23.3 18.7-42.2 41.6-42.2s41.6 18.9 41.6 42.2v.2c.2 4.5-1.2 8.1-4 9.9zm13.2-10.1v-.2C113.7 30 90.9 6.9 63 6.9 35 6.9 12.2 30 12.2 58.5c0 28.4 22.8 51.6 50.8 51.6 12.9 0 25.1-4.9 34.5-13.8 1.9-1.8 2-4.7.2-6.6-1.7-1.9-4.6-2-6.5-.3l-.1.1c-7.6 7.2-17.8 11.3-28.3 11.3-12.3 0-23.3-5.4-30.9-14L53.6 52v16.1c0 7.7 3 10.2 5.5 10.9 2.5.7 6.3.2 10.4-6.3l11.9-19.3c.4-.6.7-1.2 1.1-1.6v9.8c0 7.2 2.9 13 7.9 15.8 4.5 2.6 10.2 2.3 14.9-.6 5.8-3.8 8.9-10.4 8.5-18.3zm70.8-17.6c1.2.7 2.3 2.4 2.3 3.9 0 2.4-2 4.4-4.3 4.4-.6 0-1.1-.2-1.6-.3-2.7-2-6.1-3.3-9.7-3.3-8.5 0-14.3 6.9-14.3 15.5s5.9 15.4 14.3 15.4c4.2 0 8-1.7 10.8-4.4.7-.5 1.6-.8 2.5-.8 2.3 0 4.1 1.8 4.1 4.1 0 1.5-.9 2.8-2 3.5-4.1 3.5-9.6 5.8-15.3 5.8-13 0-23.6-10.7-23.6-23.9s10.6-23.9 23.6-23.9c4.8-.1 9.4 1.4 13.2 4zm23.8 10c8.9 0 16.3 7.5 16.3 16.8 0 9.2-7.5 17.1-16.3 17.1-9.3 0-17-7.8-17-17.1s7.7-16.8 17-16.8zm-.1 25.6c3.9 0 7.2-3.7 7.2-8.7s-3.3-8.2-7.2-8.2c-4.2 0-7.7 3.1-7.7 8.2 0 4.9 3.5 8.7 7.7 8.7zm22 3.1V56c0-2.6 2-4.7 4.6-4.7 2.5 0 4.6 2.1 4.6 4.7v23.6c0 2.6-2.1 4.7-4.6 4.7s-4.6-2.2-4.6-4.7zm-.7-37.2c0-3.1 2.4-5.5 5.3-5.5 3 0 5.4 2.5 5.4 5.5s-2.4 5.4-5.4 5.4c-3-.1-5.3-2.5-5.3-5.4zm27.5 24.4v12.8c0 2.6-2.1 4.7-4.6 4.7s-4.6-2.1-4.6-4.7V54.9c0-2 1.6-3.6 3.6-3.6s3.5 1.7 3.5 3.6c3.7-3.5 7-4 10.1-4 9.2 0 13.3 6.9 13.3 14.8v13.9c0 2.6-2.1 4.7-4.6 4.7s-4.6-2.1-4.6-4.7V66.8c0-4-.5-7.4-6.3-7.4-4.1 0-5.8 3.4-5.8 7.4zm51.1 4.9c-1.1 0-1.8-.5-2.4-1.2l-10.7-11.6v20.7c0 2.6-2.1 4.7-4.6 4.7s-4.6-2.1-4.6-4.7v-41c.3-.7 1-1.2 1.7-1.2.8 0 1.5.7 2 1.2l17.1 19.2c.5.6 1.1.9 1.5.9.3 0 1-.3 1.5-.9l17.1-19.2c.5-.5 1.1-1.2 2-1.2.8 0 1.5.5 1.7 1.2v41c0 2.6-2 4.7-4.6 4.7-2.5 0-4.6-2.1-4.6-4.7V58.9l-10.7 11.6c-.8.7-1.5 1.2-2.4 1.2zm44.2 4.8c4.1 0 7.6-3.7 7.6-8.7s-3.6-8.3-7.6-8.3-7.3 3.4-7.3 8.3c0 4.8 3.2 8.7 7.3 8.7zm9.8 4.2l-.2-1.1c-1.8 3.5-7.5 5.1-11.1 5.1-8.6 0-15-7.8-15-17.1 0-9.2 6.5-16.8 15.5-16.8 1.5 0 6.7.4 10.7 5.1l.2-1.1c0-2 1.5-3.6 3.5-3.6s3.6 1.7 3.6 3.6v25.8c0 2-1.6 3.6-3.6 3.6-2.1.1-3.6-1.6-3.6-3.5zm32.5-21.3h-1c-5.8.3-6.9 3.6-6.9 7.4v12.8c0 2.6-2.1 4.7-4.6 4.7s-4.6-2.1-4.6-4.7V54.9c0-2 1.6-3.6 3.6-3.6s3.5 1.7 3.5 3.6c3.4-3.2 6.2-3.9 9-4h.9c2.2 0 4.2 1.9 4.2 4.3.1 2.2-1.9 4.2-4.1 4.2zm35.5 18c.4.7.7 1.4.7 2.2 0 2.4-2.2 4.6-4.6 4.6-1.6 0-3-1.2-4.1-2.6l-10.6-12.3v10.2c0 2.6-2.1 4.7-4.6 4.7s-4.6-2.1-4.6-4.7V42c0-2.6 2-4.7 4.6-4.7s4.6 2.1 4.6 4.7v23.4l10.6-11.7c1.1-1.2 2.4-2.5 4-2.5 2.3 0 4.4 2.1 4.4 4.5 0 .7-.2 1.5-.6 2.1l-8.4 9.2 8.6 10.4zm18-17.9c-2.5 0-6.6 1.3-6.6 5.2h13.3c-.1-3.9-4.3-5.2-6.7-5.2zm12 11.1h-18.6c0 5.5 5.3 6.4 7.6 6.4 1.7 0 4.1-.3 6-1.2.6-.4 1.5-.7 2.4-.7 2 0 3.7 1.7 3.7 3.8 0 1.4-.9 2.6-2 3.3-2.8 2.1-6.5 2.6-10 2.6-9.3 0-17-5-17-16.7 0-9.2 4.7-17.2 15.7-17.2 8.9 0 15.6 5.8 15.8 16.1 0 1.9-1.6 3.6-3.6 3.6zm25.6 14.1h-2.5c-7 0-11.1-3.1-11.1-14V59.4h-2.4c-2.2 0-4.1-2-4.1-4.2 0-2.4 2-4.3 4.1-4.3h2.4v-8.7c0-2.6 2-4.7 4.6-4.7 2.5 0 4.6 2.1 4.6 4.7v8.7h3.8c2.2 0 4.1 1.9 4.1 4.3 0 2.2-2 4.2-4.1 4.2h-3.8v9.5c0 6.3.3 7.6 3.1 7.6h1.3c2.2 0 4.1 1.8 4.1 4.1 0 2.2-1.9 4.1-4.1 4.1zm44.5-43.8c1.2.7 2.3 2.4 2.3 3.9 0 2.4-2 4.4-4.3 4.4-.6 0-1.1-.2-1.6-.3-2.7-2-6.1-3.3-9.7-3.3-8.5 0-14.3 6.9-14.3 15.5s5.9 15.4 14.3 15.4c4.2 0 8-1.7 10.8-4.4.7-.5 1.6-.8 2.5-.8 2.3 0 4.1 1.8 4.1 4.1 0 1.5-.9 2.8-2 3.5-4.1 3.5-9.6 5.8-15.3 5.8-13 0-23.6-10.7-23.6-23.9s10.6-23.9 23.6-23.9c4.8-.1 9.5 1.4 13.2 4zm23.3 35.6c4.1 0 7.6-3.7 7.6-8.7s-3.6-8.3-7.6-8.3c-4.1 0-7.3 3.4-7.3 8.3 0 4.8 3.3 8.7 7.3 8.7zm9.8 4.2l-.2-1.1c-1.8 3.5-7.5 5.1-11.1 5.1-8.6 0-15-7.8-15-17.1 0-9.2 6.5-16.8 15.5-16.8 1.5 0 6.7.4 10.7 5.1l.2-1.1c0-2 1.5-3.6 3.5-3.6s3.6 1.7 3.6 3.6v25.8c0 2-1.6 3.6-3.6 3.6-2.1.1-3.6-1.6-3.6-3.5zm32.3-4.2c4.1 0 7.3-3.9 7.3-8.7 0-5-3.3-8.3-7.3-8.3-4.1 0-7.6 3.3-7.6 8.3s3.5 8.7 7.6 8.7zm-7.6 5.5v11.7c0 2.6-2.1 4.7-4.6 4.7s-4.6-2.1-4.6-4.7V54.9c0-2 1.6-3.6 3.6-3.6s3.5 1.7 3.5 4c3.4-3.5 7.6-4.4 10.8-4.4 8.9 0 15.5 7.5 15.5 16.8 0 9.2-6.3 17.1-15 17.1-2.7-.1-6.7-.9-9.2-2.8z" style="fill:#17181b"/></svg>