<svg xmlns="http://www.w3.org/2000/svg" xmlns:xlink="http://www.w3.org/1999/xlink" viewBox="0 0 400 400">
  <defs>
    <style>
      .a {
        fill: url(#a);
      }
      .st09854441{fill:#ffffff;}
    </style>
    <radialGradient id="a" cx="200.23834" cy="199.53617" r="181.86891" gradientUnits="userSpaceOnUse">
      <stop offset="0" stop-color="#ea15ff"/>
      <stop offset="0.19409" stop-color="#e715ff"/>
      <stop offset="0.33168" stop-color="#de14ff"/>
      <stop offset="0.45184" stop-color="#ce13ff"/>
      <stop offset="0.56208" stop-color="#b811ff"/>
      <stop offset="0.66545" stop-color="#9c0eff"/>
      <stop offset="0.76384" stop-color="#780bff"/>
      <stop offset="0.85817" stop-color="#4f07ff"/>
      <stop offset="0.94706" stop-color="#2003ff"/>
      <stop offset="1" stop-color="blue"/>
    </radialGradient>
  </defs>
  <circle class="st09854441" cx="200" cy="200" r="200"/>
  <path class="a" d="M147.91438,353.96858l52.32394-52.32152,52.324,52.32152a17.84575,17.84575,0,0,0-2.05753,4.96344H149.97187a17.746,17.746,0,0,0-2.05749-4.96344m25.75936-78.88852,20.38735,20.38735L144.845,344.68588Zm32.74185,20.38735,20.38731-20.38735,28.82874,69.60582ZM51.98436,276.7025a17.85625,17.85625,0,0,0,2.05506-4.96583h73.99719v73.99477a17.93943,17.93943,0,0,0-4.96582,2.05991Zm84.78936-4.96583h28.82873L136.77372,341.3425Zm45.91113,0h35.107l-17.55351,17.55347Zm52.18934,0h28.82874V341.3425ZM272.44,345.73144V271.73667h73.99723a17.78983,17.78983,0,0,0,2.05745,4.96583l-71.08882,71.08885a17.93968,17.93968,0,0,0-4.96586-2.05991M136.77372,238.17761,161.59325,263.002H136.77372Zm126.92921,0V263.002H238.88339Zm-135.66632-4.00678V263.002H58.43079Zm144.40342,0L342.04589,263.002H272.44Zm-72.20171-23.22119L221.79861,263.002H178.678Zm-60.1236,18.2169,52.05231-21.5579-21.56028,52.04993Zm68.19489-21.5579,52.05235,21.5579-30.49206,30.492ZM104.3083,205.71219l20.38492,20.38735L55.08979,254.9307Zm171.47512,20.38735,20.385-20.38735,49.21847,49.21851ZM110.48314,199.535l17.55347-17.55108v35.10217ZM272.44,181.98388l17.55351,17.55347L272.44,217.08605Zm-135.66631-4.0092L188.826,199.535l-52.05231,21.56029ZM211.653,199.535l52.04993-21.56028v43.12057ZM40.84127,249.80141V149.26848a17.84607,17.84607,0,0,0,4.96344-2.05746L98.12864,199.535,45.80471,251.8589a17.84735,17.84735,0,0,0-4.96344-2.05749M302.348,199.53735,354.672,147.211a17.86,17.86,0,0,0,4.96579,2.05746V249.80141a17.8613,17.8613,0,0,0-4.96579,2.05749ZM55.08979,144.14161l69.60343,28.83116L104.3083,193.3577Zm220.69363,28.83116,69.60343-28.83116L296.16838,193.3577Zm-135.6687-3.067,30.492-30.49206,21.56028,52.05Zm89.75518-30.49206L260.362,169.90577l-52.05235,21.5579ZM58.43079,136.07032h69.60582v28.83116Zm78.34293,0h24.81953l-24.81953,24.822Zm41.90432,0h43.12057l-21.56029,52.04993Zm60.20535,0h24.81954v24.822Zm33.55664,0h69.60586L272.44,164.90148ZM200.23832,109.7822l17.55351,17.551h-35.107Zm-63.4646-52.05235,28.82873,69.60336H136.77372Zm126.92921,0v69.60336H234.87419ZM144.845,54.38639l49.21612,49.21613-20.38735,20.38731Zm61.57062,49.21613,49.216-49.21613L226.8029,123.98983ZM51.98436,122.36985l71.08643-71.09131a17.86643,17.86643,0,0,0,4.96582,2.06v73.99472H54.03942a17.811,17.811,0,0,0-2.05506-4.96336M272.44,53.33849a17.79655,17.79655,0,0,0,4.96586-2.06l71.08882,71.09131a17.815,17.815,0,0,0-2.05745,4.96336H272.44ZM147.91438,45.1037a17.78969,17.78969,0,0,0,2.05749-4.96579h100.5329a17.88952,17.88952,0,0,0,2.05753,4.96579l-52.324,52.32155ZM250.50477,31.40081H149.97187A18.102,18.102,0,1,0,116.89594,45.1037L45.80471,116.19258a18.10122,18.10122,0,1,0-13.70055,33.0759V249.80141a18.10217,18.10217,0,1,0,13.70055,33.07835l71.09123,71.08882a18.10157,18.10157,0,1,0,33.07593,13.70054h100.5329a18.1017,18.1017,0,1,0,33.076-13.70054L354.672,282.87976a18.10217,18.10217,0,1,0,13.70047-33.07835V149.26848a18.10168,18.10168,0,1,0-13.70047-33.0759L283.58074,45.1037a18.1018,18.1018,0,1,0-33.076-13.70289"/>
</svg>
