<svg version="1.1" id="Layer_1" xmlns="http://www.w3.org/2000/svg" xmlns:xlink="http://www.w3.org/1999/xlink" x="0px" y="0px"
	 viewBox="0 0 128 128" style="enable-background:new 0 0 128 128;" xml:space="preserve">
<style type="text/css">
	.st0{fill:#65B900;}
	.st1{fill:#FFFFFF;}
</style>
<circle class="st0" cx="64" cy="64" r="64"/>
<g>
	<path class="st1" d="M89.2,14.7c0-0.8-0.1-1.4-0.2-1.9c-0.4-1.6-1.4-3.4-3.1-5.2c-0.6-0.7-1.4-1.5-2.5-2.3
		c-0.1-0.1-0.2-0.2-0.3-0.2c-0.6-0.4-1.3-0.6-2.1-0.5c-0.7,0.1-1.3,0.4-1.6,1.1c-4.3,4.4-9.3,8.4-15.1,12.3c-1.2,0.9-4,2.5-8.5,5.3
		c-1.3,0.8-2.7,1.7-4,2.6c-1.9,1.2-3.1,2.4-3.5,3.4c-0.3,0.5,0,1.1,0.7,1.7c0.7,0.6,1.4,1,2,1.1c5.2,1,11.1-0.1,17.7-2.8
		c2.4-5.5,4.9-10.8,7.5-16c-0.5,1.2-1,2.5-1.5,3.7c-5.6,13.2-10.5,27.4-14.1,42.2c-0.1,0.3-0.1,0.6-0.2,0.9c-0.1,0.5-0.2,1-0.4,1.5
		c-1.6,7.5-2.9,15.1-3.9,22.8c-3.7,0.5-7.6,1.5-11.7,3.1c-0.4,0.2-0.8,0.4-1.2,0.5c-0.2,0.1-0.3,0.1-0.5,0.2c0,0.1-0.1,0.1-0.1,0.2
		c-4.4,2.3-7.1,5.4-8,9.2c-0.3,1.1-0.4,2.3-0.3,3.6c0.1,2,0.8,4,1.8,6c1.3,2.1,3,3.8,5,5.1c1.4,0.9,2.9,1.6,4.5,2
		c1.2,0.3,2.1,1.2,2.1,2.5c0,0.6-0.2,1.1-0.2,1.7c0,0.6,0.3,1.2,0.9,1.3c0.7,0.1,1.2-0.7,1.1-1.4c-0.1-0.7-0.3-1.2-0.7-1.8
		c-0.4-0.6-0.5-1.2-0.3-1.9c0.3-0.8,1.1-1,1.9-0.6s0.8,1,0.8,1.9c0.1,0.8,0,1.6-0.3,2.4c-0.3,0.8-0.7,1.6-0.7,2.4
		c0,0.8,0.7,1.7,1.5,1.7c1-0.1,1.5-1.4,1.2-2.4c-0.3-1-0.5-1.8-0.8-2.8c-0.3-1-0.3-2.4,0.7-2.4c0.6,0,1.2,0.4,1.5,1
		c0.6,1,0.6,2.2,0.4,3.3c-0.2,1.1-0.5,2.2-0.6,3.4c-0.1,1.1,0.1,2.4,0.8,3.2c0.7,0.9,2.2,1.2,3.1,0.5c0.8-0.6,0.9-1.9,0.6-2.9
		c-0.3-1-0.9-1.8-1.4-2.8c-1.3-2.9-2-6.6,0.8-8c1.2-0.6,1.9-1.2,3-2.1c3.5-2.9,6-6.7,7.5-11.6c1-3.2,1.8-7.6,2.7-13.1
		c0.1-0.9,0.4-1.8,0.5-2.7c0.8-12.2,7.7-37.9,10.5-46.5C84,30.7,86,25.2,88,19.8c0.4-1.1,0.7-2,0.8-2.7c0.2-0.7,0.2-1.3,0.3-1.7
		C89.2,15.1,89.2,14.9,89.2,14.7z M54.7,110c-0.4,0.2-0.9,0.4-1.5,0.6c-0.4,0.2-0.8,0.3-1.2,0.5c-0.4,0.1-0.9,0.2-1.3,0.4
		c-0.4,0.1-0.9,0.1-1.3,0.2c-0.4,0.1-0.9,0.1-1.5,0c-0.5-0.1-1-0.1-1.5-0.2c-0.5-0.2-0.9-0.4-1.4-0.6c-0.2-0.1-0.4-0.2-0.6-0.3
		c-0.2-0.2-0.4-0.3-0.6-0.5c-0.1-0.1-0.3-0.2-0.4-0.3c-0.1-0.2-0.2-0.3-0.3-0.5c-0.2-0.2-0.3-0.3-0.3-0.5c-0.2-0.2-0.3-0.3-0.3-0.4
		c0,0-0.1,0-0.1,0c-0.2-0.4-0.4-0.9-0.5-1.3c-0.6-1.5-0.9-2.9-1.1-4.3c-0.3-3.1,0.4-6.2,2.1-9c1.3-2.2,3.1-3.9,5.3-5.1
		c2.2-1.2,4.6-1.8,7-1.8c-0.3,4.9-1.2,9.3-2.9,13.1c-0.8,1.9-2,3.6-3.5,5.1c-1.5,1.5-3.2,2.6-5,3.2c0,0,0.1,0.1,0.3,0.2
		c0.1,0.2,0.1,0.4,0.2,0.5c0.1,0.1,0.3,0.2,0.4,0.3c0.1,0.1,0.3,0.2,0.4,0.3c0.2,0.2,0.3,0.3,0.5,0.5c0.2,0.2,0.4,0.3,0.6,0.3
		c0.2,0.1,0.4,0.1,0.6,0.2c0.3,0.1,0.7,0.2,1.2,0.3c0.5,0.1,1,0.1,1.3,0c0.4,0,0.8,0,1.3-0.1c0.4-0.1,0.9-0.1,1.3-0.2
		c0.5-0.1,0.9-0.2,1-0.3c0.6-0.2,1.1-0.4,1.5-0.5c0.4-0.2,0.7-0.2,0.8-0.3C55.3,109.7,55.1,109.8,54.7,110z"/>
	<path class="st1" d="M53.9,41.6c0.6-0.3,0.9-0.9,1-1.5c0.1-0.6-0.1-1.3-0.2-1.9c-0.2-0.8-0.5-1.5-0.7-2.3c-0.1-0.5-0.1-1.6-0.6-1.9
		c-0.3,0.5-0.5,1.3-0.7,1.9c-0.3,0.6-0.7,1.2-0.9,1.9c-0.4,0.9-0.5,1.9-0.1,2.8C51.9,41.4,53,42,53.9,41.6z"/>
</g>
</svg>
