<svg xmlns="http://www.w3.org/2000/svg" viewBox="0 0 624.99 140"><path fill="#111827" d="M0 0h624.99v140H0z"/><g fill="#ece9e9"><path d="M150.51 24.62c17.06 0 28.61 11.06 28.61 28.12s-12.16 28-29.82 28h-13V104h-20.18V24.62zm-14.2 40.94h8.75c8.59 0 13.65-4.46 13.65-12.77s-5.06-12.71-13.54-12.71h-8.86zM241.39 85.09c-1.87 12.38-12.88 20.36-28.56 20.36-19.09 0-30.48-11.72-30.48-31.09s11.5-31.69 29.82-31.69c18.05 0 29.55 11.83 29.55 30.15v5.51h-40.45v1.21c0 7.15 4.79 12.1 11.83 12.1 5.23 0 9.3-2.47 10.68-6.55zm-39.84-17.88h21.79c-.33-6.38-4.68-10.67-10.84-10.67-6 0-10.5 4.46-10.95 10.67zM245.88 86.69c0-11.23 8.63-17.5 24.15-18.43l14-.83V64c0-4.79-3.41-7.43-8.53-7.43-5.28 0-8.64 2.75-9.19 6.44h-17.52c.55-12.27 11-20.36 27.73-20.36 16 0 26.63 8.2 26.63 20.25V104h-19v-8.51h-.38c-3.25 6.06-10.57 9.41-17.78 9.41-11.09 0-20.11-7.37-20.11-18.21zm38.18-4.18v-4.13l-10.89.72c-5.12.38-8 2.75-8 6.27 0 3.8 3.13 6.11 7.76 6.11 5.96 0 11.13-3.64 11.13-8.97zM311.33 44.1h19v11.34h.39c2.2-8.09 7-12.22 14.08-12.22a14.31 14.31 0 015 .77v16.62a17.46 17.46 0 00-6.22-1.1c-8.2 0-12.66 4.62-12.66 13V104h-19.59zM354.44 91.2l37.75-49.91v-.38h-37.14V24.62h60.86v12.82l-37.59 49.91v.38h38.8V104h-62.68zM423 86.69c0-11.23 8.63-17.5 24.15-18.43l14-.83V64c0-4.79-3.41-7.43-8.53-7.43-5.28 0-8.64 2.75-9.19 6.44H426c.55-12.27 11-20.36 27.73-20.36 16 0 26.64 8.2 26.64 20.25V104h-19v-8.51H461c-3.25 6.06-10.57 9.41-17.78 9.41-11.16 0-20.22-7.37-20.22-18.21zm38.18-4.18v-4.13l-10.89.72c-5.12.38-8 2.75-8 6.27 0 3.8 3.14 6.11 7.76 6.11 6 0 11.17-3.64 11.17-8.97zM550.39 74.09c0 19.53-8.75 30.81-23.66 30.81-8.8 0-15.4-4.18-18.32-11.11H508v29.6h-19.51V44.1h19.42v10.68h.39c3-7.21 9.52-11.56 18.16-11.56 15.13 0 23.93 11.28 23.93 30.87zm-19.92 0c0-9.52-4.4-15.63-11.28-15.63S508 64.62 507.91 74.09s4.41 15.57 11.28 15.57 11.28-6.05 11.28-15.57zM557.58 94.5a10.21 10.21 0 1110.18 10.24 10.16 10.16 0 01-10.18-10.24z"/></g><path fill="#f3ca34" d="M70.32 29.49l14.84-6.37-12.72 36.67 19.69 1.51-36.96 48.48 11.51-37.87H46.99l23.33-42.42z"/></svg>