<svg xmlns="http://www.w3.org/2000/svg" viewBox="0 0 539.83 471.72"><g fill="#1d160f"><path d="M164.75 199.12c11 0 18.39 7.11 18.39 18.07s-7.81 18-19.17 18h-8.34v15h-13v-51zm-9.12 26.31h5.62c5.52 0 8.77-2.86 8.77-8.2s-3.25-8.17-8.7-8.17h-5.69zM223.17 238c-1.2 8-8.27 13.09-18.35 13.09-12.28 0-19.6-7.54-19.6-20s7.39-20.37 19.17-20.37c11.6 0 19 7.61 19 19.38v3.54h-26v.78c0 4.6 3.08 7.78 7.6 7.78 3.36 0 6-1.59 6.87-4.21zm-25.6-11.49h14c-.21-4.11-3-6.87-7-6.87s-6.69 2.86-7 6.86zM226.06 239c0-7.22 5.56-11.25 15.53-11.85l9-.53v-2.2c0-3.07-2.19-4.77-5.48-4.77s-5.56 1.77-5.91 4.14h-11.26c.35-7.89 7.07-13.09 17.82-13.09 10.3 0 17.12 5.27 17.12 13v26.42h-12.2v-5.48h-.25c-2.08 3.89-6.79 6-11.42 6-7.15.08-12.95-4.64-12.95-11.64zm24.55-2.69v-2.65l-7 .46c-3.29.24-5.13 1.76-5.13 4 0 2.44 2 3.92 5 3.92 3.81.05 7.13-2.28 7.13-5.71zM268.14 211.64h12.21v7.29h.24c1.42-5.2 4.53-7.86 9.06-7.86a9.06 9.06 0 013.18.5v10.68a11.29 11.29 0 00-4-.71c-5.27 0-8.14 3-8.14 8.35v20.27h-12.55zM295.86 241.92l24.27-32.08v-.25h-23.88v-10.47h39.12v8.24l-24.16 32.08v.25h24.94v10.47h-40.29zM340 239c0-7.22 5.55-11.25 15.53-11.85l9-.53v-2.2c0-3.07-2.2-4.77-5.49-4.77s-5.55 1.77-5.9 4.14h-11.31c.36-7.89 7.08-13.09 17.83-13.09 10.29 0 17.12 5.27 17.12 13v26.42h-12.2v-5.48h-.25c-2.09 3.89-6.79 6-11.43 6-7.14.08-12.9-4.64-12.9-11.64zm24.55-2.69v-2.65l-7 .46c-3.29.24-5.13 1.76-5.13 4 0 2.44 2 3.92 5 3.92 3.76.05 7.09-2.28 7.09-5.71zM421.83 230.92c0 12.55-5.62 19.8-15.21 19.8-5.66 0-9.9-2.68-11.78-7.14h-.24v19H382v-51h12.48v6.86h.25c2-4.63 6.12-7.43 11.67-7.43 9.77.06 15.43 7.32 15.43 19.91zm-12.8 0c0-6.12-2.83-10-7.25-10s-7.22 4-7.26 10 2.83 10 7.26 10 7.22-3.92 7.22-10zM426.45 244a6.57 6.57 0 116.55 6.58 6.54 6.54 0 01-6.55-6.58z"/></g><path fill="#f3ca34" d="M113.2 202.24l9.54-4.09-8.18 23.57 12.66.97-23.76 31.17 7.4-24.35H98.2l15-27.27z"/></svg>