<svg xmlns="http://www.w3.org/2000/svg" viewBox="0 0 405.85 123.25"><path fill="#111827" d="M0 0h405.85v123.25H0z"/><path fill="#f3ca34" d="M49.7 27.97l13.13-5.62-11.25 32.41 17.41 1.34-32.68 42.85 10.18-33.48H29.08l20.62-37.5z"/><g fill="#ece9e9"><path d="M111.82 22.35c11.13 0 18.68 7.22 18.68 18.35S122.56 59 111 59h-8.48v15.2H89.37V22.35zm-9.27 26.72h5.71c5.61 0 8.91-2.91 8.91-8.33s-3.3-8.3-8.83-8.3h-5.79zM171.14 61.82c-1.22 8.08-8.41 13.29-18.64 13.29-12.46 0-19.9-7.65-19.9-20.29s7.51-20.69 19.47-20.69c11.78 0 19.29 7.72 19.29 19.68v3.59H145v.79c0 4.67 3.12 7.9 7.72 7.9 3.41 0 6.07-1.61 7-4.27zm-26-11.67h14.22c-.22-4.17-3.05-7-7.08-7s-6.82 2.94-7.14 7zM174.07 62.86c0-7.33 5.64-11.42 15.76-12l9.16-.54v-2.26c0-3.12-2.22-4.84-5.56-4.84s-5.64 1.79-6 4.2H176c.36-8 7.18-13.29 18.1-13.29 10.45 0 17.39 5.35 17.39 13.21v26.84h-12.42v-5.57h-.26c-2.11 4-6.89 6.14-11.6 6.14-7.21 0-13.14-4.81-13.14-11.89zM199 60.13v-2.69l-7.11.47c-3.34.25-5.21 1.79-5.21 4.09 0 2.48 2.05 4 5.07 4 3.87 0 7.25-2.38 7.25-5.87zM216.79 35.06h12.39v7.4h.26c1.43-5.28 4.59-8 9.19-8a9.32 9.32 0 013.23.5v10.88a11.38 11.38 0 00-4.06-.72c-5.35 0-8.26 3-8.26 8.47v20.59h-12.75zM244.94 65.81l24.63-32.58V33h-24.24V22.35h39.72v8.37l-24.53 32.57v.25h25.32v10.64h-40.9zM289.71 62.86c0-7.33 5.64-11.42 15.77-12l9.16-.54v-2.26c0-3.12-2.23-4.84-5.57-4.84s-5.64 1.79-6 4.2h-11.46c.36-8 7.19-13.29 18.1-13.29 10.46 0 17.39 5.35 17.39 13.21v26.84h-12.39v-5.57h-.25c-2.12 4-6.9 6.14-11.6 6.14-7.26 0-13.15-4.81-13.15-11.89zm24.93-2.73v-2.69l-7.12.47c-3.34.25-5.2 1.79-5.2 4.09 0 2.48 2 4 5.06 4 3.88 0 7.26-2.38 7.26-5.87zM372.84 54.64c0 12.75-5.71 20.11-15.44 20.11-5.75 0-10.06-2.73-12-7.26h-.26v19.33h-12.71V35.06h12.68v7h.25c2-4.71 6.22-7.54 11.86-7.54 9.87-.03 15.62 7.33 15.62 20.12zm-13 0c0-6.22-2.88-10.2-7.36-10.2s-7.33 4-7.37 10.2S348 64.8 352.48 64.8s7.36-3.95 7.36-10.16zM377.53 68a6.66 6.66 0 116.64 6.68 6.63 6.63 0 01-6.64-6.68z"/></g><g fill="#bebcbc"><path d="M98.49 98.06v-6.63h-8v6.63h-1.81V83.5h1.81v6.3h8v-6.3h1.81v14.56zM102.52 84.71a1.1 1.1 0 012.19 0 1.1 1.1 0 01-2.19 0zm.21 2.86h1.76v10.49h-1.76zM106.55 98.93h1.81a2.71 2.71 0 002.69 1.6c1.82 0 2.92-1 2.92-2.62v-1.65a3.8 3.8 0 01-3.36 1.88c-2.68 0-4.43-2.11-4.43-5.37s1.75-5.38 4.47-5.38a3.82 3.82 0 013.35 1.94v-1.76h1.67v10.28c0 2.5-1.84 4.17-4.74 4.17-2.26-.02-4.09-1.3-4.38-3.09zm7.45-6.16c0-2.31-1.22-3.84-3-3.84s-3 1.49-3 3.84 1.18 3.83 3 3.83 3-1.51 3-3.83zM117.88 83.5h1.76v5.74a3.46 3.46 0 013.36-1.85c2.3 0 3.69 1.55 3.69 3.89v6.78h-1.76V91.6c0-1.66-.83-2.66-2.48-2.66a2.73 2.73 0 00-2.82 3v6.11h-1.76zM132.86 101.93v-1.47a3.69 3.69 0 00.68.05c1 0 1.53-.48 1.93-1.7l.24-.74-3.87-10.5h1.88l2.9 8.74 2.91-8.74h1.85l-4.1 11.23c-.9 2.45-1.77 3.19-3.67 3.19a4.56 4.56 0 01-.75-.06zM142.45 84.71a1.1 1.1 0 111.1 1.09 1.09 1.09 0 01-1.1-1.09zm.22 2.86h1.75v10.49h-1.75zM155.27 95.06c-.3 1.83-2.07 3.18-4.37 3.18-3 0-4.83-2.08-4.83-5.38s1.86-5.47 4.75-5.47 4.59 2 4.59 5.23v.67h-7.53v.1a3 3 0 003.12 3.33 2.52 2.52 0 002.6-1.66zm-7.38-3.14h5.7a2.81 2.81 0 00-2.8-3 3 3 0 00-2.9 3zM157.05 83.5h1.76v14.56h-1.76zM160.45 92.82c0-3.29 1.81-5.43 4.45-5.43a3.67 3.67 0 013.34 1.88V83.5H170v14.56h-1.67v-1.77a3.76 3.76 0 01-3.4 1.95c-2.66 0-4.48-2.13-4.48-5.42zm1.8 0c0 2.38 1.17 3.88 3 3.88s3-1.53 3-3.88-1.21-3.89-3-3.89-3 1.51-3 3.89zM175.93 87.39c2.17 0 3.77 1.29 3.85 3.06h-1.68c-.12-1-.94-1.63-2.23-1.63s-2.13.63-2.13 1.55c0 .73.56 1.21 1.75 1.52l1.62.39c2.12.54 2.89 1.3 2.89 2.85 0 1.82-1.73 3.11-4.18 3.11-2.3 0-3.9-1.25-4.09-3.1h1.76c.19 1.09 1 1.67 2.44 1.67s2.3-.6 2.3-1.55c0-.75-.43-1.15-1.61-1.47l-1.85-.47c-1.84-.47-2.75-1.42-2.75-2.86-.02-1.79 1.6-3.07 3.91-3.07zM185.12 92.82c0-3.36 2-5.43 4.86-5.43s4.86 2.07 4.86 5.43-2 5.42-4.86 5.42-4.86-2.08-4.86-5.42zm7.93 0c0-2.48-1.21-3.89-3.07-3.89s-3.08 1.41-3.08 3.89 1.23 3.88 3.08 3.88 3.07-1.41 3.07-3.88zM196.39 87.57h1.66v1.67a3.5 3.5 0 013.33-1.85c2.3 0 3.63 1.48 3.63 3.86v6.81h-1.76v-6.5c0-1.69-.79-2.62-2.41-2.62a2.68 2.68 0 00-2.73 3v6.17h-1.76zM216.57 83.5a4.69 4.69 0 010 9.37h-3.37v5.19h-1.81V83.5zm-3.39 7.75h2.91c2.08 0 3.27-1.14 3.27-3.08s-1.18-3.06-3.27-3.06h-2.91zM221.8 92.82c0-3.36 2-5.43 4.87-5.43s4.85 2.07 4.85 5.43-2 5.42-4.85 5.42-4.87-2.08-4.87-5.42zm7.93 0c0-2.48-1.21-3.89-3.06-3.89s-3.08 1.41-3.08 3.89 1.22 3.88 3.08 3.88 3.06-1.41 3.06-3.88zM233.16 83.5h1.76v14.56h-1.76zM237.19 101.93v-1.47a3.87 3.87 0 00.69.05c1 0 1.52-.48 1.93-1.7l.24-.74-3.88-10.5h1.88l2.95 8.74 2.9-8.74h1.85l-4.14 11.23c-.9 2.45-1.76 3.19-3.66 3.19a4.77 4.77 0 01-.76-.06zM246.51 98.93h1.8a2.73 2.73 0 002.7 1.6 2.59 2.59 0 002.91-2.62v-1.65a3.78 3.78 0 01-3.36 1.88c-2.67 0-4.43-2.11-4.43-5.37s1.76-5.38 4.47-5.38a3.82 3.82 0 013.4 1.94v-1.76h1.67v10.28c0 2.5-1.85 4.17-4.74 4.17-2.3-.02-4.13-1.3-4.42-3.09zm7.41-6.16c0-2.31-1.22-3.84-3-3.84s-3 1.49-3 3.84 1.18 3.83 3 3.83 3-1.51 3-3.83zM257.23 92.82c0-3.36 2-5.43 4.87-5.43s4.9 2.07 4.9 5.43-2 5.42-4.85 5.42-4.92-2.08-4.92-5.42zm7.94 0c0-2.48-1.22-3.89-3.07-3.89s-3.1 1.41-3.1 3.89 1.22 3.88 3.08 3.88 3.09-1.41 3.09-3.88zM268.5 87.57h1.66v1.67a3.51 3.51 0 013.33-1.85c2.3 0 3.63 1.48 3.63 3.86v6.81h-1.75v-6.5c0-1.69-.8-2.62-2.41-2.62a2.68 2.68 0 00-2.74 3v6.17h-1.72zM290.21 91a2.58 2.58 0 00-2.68-2.08c-1.82 0-3 1.5-3 3.89s1.25 3.88 3.07 3.88a2.53 2.53 0 002.67-2H292a4.18 4.18 0 01-4.41 3.56c-2.91 0-4.84-2-4.84-5.42s1.92-5.43 4.82-5.43a4.18 4.18 0 014.36 3.6zM293.44 83.5h1.76v5.74a3.46 3.46 0 013.33-1.85c2.3 0 3.69 1.55 3.69 3.89v6.78h-1.75V91.6c0-1.66-.84-2.66-2.49-2.66a2.73 2.73 0 00-2.82 3v6.11h-1.76zM303.86 95.1c0-1.8 1.38-2.93 3.8-3.07l3-.17V91c0-1.28-.85-2-2.3-2a2.2 2.2 0 00-2.36 1.59h-1.7c.12-1.81 1.67-3.2 4.16-3.2s4 1.33 4 3.42v7.25h-1.66v-1.8a3.83 3.83 0 01-3.37 2c-2.17-.02-3.57-1.26-3.57-3.16zm6.81-1v-.86l-2.81.17c-1.41.09-2.22.72-2.22 1.71s.84 1.65 2.1 1.65a2.76 2.76 0 002.93-2.69zM314.32 84.71a1.1 1.1 0 012.19 0 1.1 1.1 0 01-2.19 0zm.21 2.86h1.76v10.49h-1.76zM318.45 87.57h1.66v1.67a3.5 3.5 0 013.33-1.85c2.3 0 3.63 1.48 3.63 3.86v6.81h-1.76v-6.5c0-1.69-.79-2.62-2.41-2.62a2.68 2.68 0 00-2.73 3v6.17h-1.76z"/></g></svg>