<svg xmlns="http://www.w3.org/2000/svg" viewBox="0 0 539.83 471.72"><path fill="#111827" d="M0 0h539.83v471.72H0z"/><path fill="#f3ca34" d="M278.83 66.78l69.59-29.82-59.65 171.84 92.31 7.1-173.26 227.23 53.97-177.53h-92.31L278.83 66.78z"/><path fill="#111827" d="M135.02 220.21h314v74h-314z"/><g fill="#ece9e9"><path d="M164.75 227.37c11 0 18.39 7.11 18.39 18.08s-7.81 18-19.17 18h-8.34v15h-13v-51zm-9.12 26.32h5.62c5.52 0 8.77-2.87 8.77-8.21s-3.25-8.17-8.7-8.17h-5.69zM223.17 266.24c-1.2 8-8.27 13.09-18.35 13.09-12.28 0-19.6-7.53-19.6-20S192.61 239 204.39 239c11.6 0 19 7.61 19 19.39v3.53h-26v.78c0 4.6 3.08 7.78 7.6 7.78 3.36 0 6-1.59 6.86-4.21zm-25.6-11.49h14c-.21-4.1-3-6.86-7-6.86s-6.69 2.86-7 6.86zM226.06 267.27c0-7.22 5.56-11.25 15.53-11.85l9-.53v-2.19c0-3.08-2.19-4.78-5.48-4.78s-5.56 1.77-5.91 4.14h-11.26c.35-7.89 7.07-13.09 17.82-13.09 10.3 0 17.12 5.27 17.12 13v26.42h-12.2v-5.48h-.25c-2.08 3.89-6.79 6.05-11.42 6.05-7.15.04-12.95-4.72-12.95-11.69zm24.55-2.69v-2.65l-7 .46c-3.29.25-5.13 1.77-5.13 4 0 2.44 2 3.93 5 3.93 3.81.03 7.13-2.32 7.13-5.74zM268.14 239.89h12.21v7.29h.24c1.42-5.2 4.53-7.85 9.06-7.85a9.08 9.08 0 013.18.49v10.68a11.31 11.31 0 00-4-.7c-5.26 0-8.13 3-8.13 8.34v20.27h-12.56zM295.86 270.17l24.27-32.08v-.25h-23.88v-10.47h39.12v8.24l-24.16 32.08v.25h24.94v10.47h-40.29zM340 267.27c0-7.22 5.55-11.25 15.53-11.85l9-.53v-2.19c0-3.08-2.19-4.78-5.48-4.78s-5.55 1.77-5.9 4.14h-11.32c.36-7.89 7.08-13.09 17.83-13.09 10.29 0 17.12 5.27 17.12 13v26.42h-12.2v-5.48h-.25c-2.09 3.89-6.79 6.05-11.43 6.05-7.14.04-12.9-4.72-12.9-11.69zm24.54-2.69v-2.65l-7 .46c-3.29.25-5.13 1.77-5.13 4 0 2.44 2 3.93 5 3.93 3.77.03 7.09-2.32 7.09-5.74zM421.83 259.17c0 12.56-5.62 19.81-15.21 19.81-5.66 0-9.9-2.69-11.78-7.15h-.25v19H382v-51h12.48v6.87h.25c2-4.64 6.12-7.43 11.67-7.43 9.77.06 15.43 7.31 15.43 19.9zm-12.8 0c0-6.12-2.83-10.05-7.25-10.05s-7.22 4-7.26 10.05 2.83 10 7.26 10 7.22-3.88 7.22-10zM426.45 272.29a6.57 6.57 0 116.55 6.58 6.54 6.54 0 01-6.55-6.58z"/></g></svg>